<?xml version="1.0" encoding="utf-8"?>
<!-- Generator: Adobe Illustrator 27.0.0, SVG Export Plug-In . SVG Version: 6.00 Build 0)  -->
<svg version="1.1" id="Layer_1" xmlns="http://www.w3.org/2000/svg" xmlns:xlink="http://www.w3.org/1999/xlink" x="0px" y="0px"
	 viewBox="0 0 1000 1000" style="enable-background:new 0 0 1000 1000;" xml:space="preserve">
<path d="M740.9,368.5c-5.7-5.7-12.9-8.7-20.3-9.1l0,0h0c-1.2-0.1-2.3-0.1-3.5,0l-435.8-0.1c0,0,0,0,0,0h0l0,0c-8,0-16,3.1-22.1,9.2
	c-12.2,12.2-12.2,32,0,44.2l218.7,218.7c6.1,6.1,14.1,9.2,22.1,9.2s16-3,22.1-9.1l218.8-218.8C753.1,400.5,753.1,380.7,740.9,368.5z
	"/>
</svg>
