<?xml version="1.0" encoding="utf-8"?>
<!-- Generator: Adobe Illustrator 25.1.0, SVG Export Plug-In . SVG Version: 6.00 Build 0)  -->
<svg version="1.1" id="Layer_1" xmlns="http://www.w3.org/2000/svg" xmlns:xlink="http://www.w3.org/1999/xlink" x="0px" y="0px"
	 viewBox="0 0 1000 1000" style="enable-background:new 0 0 1000 1000;" xml:space="preserve">
<path d="M656.3,249.9h-36.6c-12.9-36.4-47.7-62.5-88.4-62.5h-62.5c-40.7,0-75.5,26.1-88.4,62.5h-36.6c-51.7,0-93.8,42.1-93.8,93.8
	v375c0,51.7,42.1,93.8,93.8,93.8h312.4c51.7,0,93.8-42.1,93.9-93.8v-375C750.1,292,708,249.9,656.3,249.9z M468.7,250h62.5
	c17.2,0,31.2,14,31.2,31.2s-14,31.2-31.2,31.2h-62.5c-17.2,0-31.2-14-31.2-31.2S451.5,250,468.7,250z M687.5,718.7
	c0,17.2-14,31.2-31.2,31.2H343.8c-17.2,0-31.2-14-31.2-31.2v-375c0-17.2,14-31.2,31.2-31.2h36.5c12.9,36.4,47.7,62.5,88.4,62.5h62.5
	c40.8,0,75.6-26.1,88.5-62.5h36.6c17.2,0,31.2,14,31.2,31.2V718.7z"/>
</svg>
