<?xml version="1.0" encoding="UTF-8"?>
<!-- Generator: Adobe Illustrator 24.0.2, SVG Export Plug-In . SVG Version: 6.00 Build 0)  -->
<svg version="1.1" id="black_w_white_paper" xmlns="http://www.w3.org/2000/svg" xmlns:xlink="http://www.w3.org/1999/xlink" x="0px" y="0px" viewBox="0 0 201.7 61.7" style="enable-background:new 0 0 201.7 61.7;" xml:space="preserve">
<style type="text/css">
	.st0{fill:#231F20;}
	.st1{fill:#FFFFFF;}
</style>
<g>
	<polygon class="st0" points="58.5,48.7 61.1,48.7 61.1,56 61.8,56 61.8,48.7 64.5,48.7 64.5,48 58.5,48  "/>
	<polygon class="st0" points="65.8,56 71,56 71,55.3 66.6,55.3 66.6,52.3 70.8,52.3 70.8,51.5 66.6,51.5 66.6,48.7 71,48.7 71,48    65.8,48  "/>
	<polygon class="st0" points="81.4,48 80.4,48 76.6,52.7 76.6,48 75.8,48 75.8,56 76.6,56 76.6,53.9 78.1,52 80.7,56 81.6,56    78.6,51.4  "/>
	<path class="st0" d="M86.5,48h-0.9l-3.2,8.1h0.8l0.7-1.9h4.2l0.7,1.9h0.8L86.5,48L86.5,48z M87.9,53.4h-3.6l1.8-4.6L87.9,53.4z"/>
	<rect x="91" y="48" class="st0" width="0.7" height="8.1"/>
	<polygon class="st0" points="93,48.7 95.6,48.7 95.6,56 96.3,56 96.3,48.7 99,48.7 99,48 93,48  "/>
	<rect x="100.3" y="48" class="st0" width="0.7" height="8.1"/>
	<path class="st0" d="M106.3,48h-0.9l-3.2,8.1h0.8l0.7-1.9h4.2l0.7,1.9h0.8L106.3,48L106.3,48z M107.7,53.4h-3.6l1.8-4.6L107.7,53.4   z"/>
	<polygon class="st0" points="116.3,48 115.3,48 111.5,52.7 111.5,48 110.8,48 110.8,56 111.5,56 111.5,53.9 113,52 115.6,56    116.5,56 113.5,51.4  "/>
	<rect x="117.7" y="48" class="st0" width="0.7" height="8.1"/>
	<polygon class="st0" points="129.2,48 123.2,48 123.2,48.7 125.8,48.7 125.8,56 126.5,56 126.5,48.7 129.2,48.7  "/>
	<path class="st0" d="M132.8,48h-0.9l-3.2,8.1h0.8l0.7-1.9h4.2l0.7,1.9h0.8L132.8,48L132.8,48z M134.2,53.4h-3.6l1.8-4.6L134.2,53.4   z"/>
	<polygon class="st0" points="142.8,48 141.8,48 138,52.7 138,48 137.3,48 137.3,56 138,56 138,53.9 139.5,52 142.1,56 143,56    140,51.4  "/>
	<polygon class="st0" points="144.2,56 149.5,56 149.5,55.3 145,55.3 145,52.3 149.2,52.3 149.2,51.5 145,51.5 145,48.7 149.5,48.7    149.5,48 144.2,48  "/>
	<polygon class="st0" points="159.8,48 158.8,48 155,52.7 155,48 154.3,48 154.3,56 155,56 155,53.9 156.5,52 159.1,56 160,56    157,51.4  "/>
	<path class="st0" d="M164.6,47.8c-2.2,0-4,1.9-4,4.2c0,2.3,1.8,4.2,4,4.2c2.3,0,4-1.8,4-4.2C168.6,49.7,166.9,47.8,164.6,47.8z    M164.6,55.4c-1.9,0-3.3-1.5-3.3-3.4c0-2,1.4-3.4,3.3-3.4s3.3,1.5,3.3,3.4S166.5,55.4,164.6,55.4z"/>
	<polygon class="st0" points="176.6,55 174.8,48 174,48 172.1,55 170.3,48 169.5,48 171.7,56 172.6,56 174.4,49.2 176.2,56    177.1,56 179.3,48 178.5,48  "/>
	<polygon class="st0" points="186,51.5 181.4,51.5 181.4,48 180.6,48 180.6,56 181.4,56 181.4,52.3 186,52.3 186,56 186.7,56    186.7,48 186,48  "/>
	<rect x="188.8" y="48" class="st0" width="0.7" height="8.1"/>
	<path class="st0" d="M197.3,50.5c0-1.7-1-2.5-3-2.5h-2.7v8.1h0.7v-3h2.1l2.1,3h0.9l-2.2-3.1C196.6,52.7,197.3,51.8,197.3,50.5z    M196.5,50.5c0,1.2-0.7,1.8-2,1.8h-2.1v-3.6h2.1C195.8,48.7,196.5,49.3,196.5,50.5z"/>
	<rect x="199" y="48" class="st0" width="0.7" height="8.1"/>
	<rect x="161.8" y="46.2" class="st0" width="5.5" height="0.7"/>
</g>
<path class="st0" d="M48.8,26.3c-0.2-2-2-3.7-4.2-3.6s-3.8,2-3.7,4.2s2,3.8,4.2,3.7c0.3,0,0.6-0.1,0.9-0.2c0,0.1,0,0.2,0,0.3  c0,4.9-0.7,9.2-1.9,12.9H37l-3-16.8l2.7-2.7c2.2-2.2,3.7-5,4.3-6.1l5.2-2.7C42.5,6,34.9,0.5,24.8,0.5C10,0.5,0.7,12.1,0.7,30.7  c0,1.5,0,2.6,0.2,4.4c0.2,2,2,3.7,4.2,3.6s3.8-2,3.7-4.2c-0.1-2.2-2-3.8-4.2-3.7c-0.3,0-0.6,0.1-0.9,0.2c0-0.1,0-0.2,0-0.3  c0-17.1,7.9-27.3,21.2-27.3c3.9,0,7.4,0.9,10.3,2.6c-3.7,2.2-7.6,4.1-11.6,5.6l-4.1,1.5c-1.3,0.5-2.3,1.6-2.6,2.9l-2.8,10.8  l-2.2,0.4l2.9,16.5H2.7C6.1,54.6,14,61,25,61c14.8,0,24.1-11.6,24.1-30.2C49,29.2,49,28.1,48.8,26.3z M23.4,31.5  c-0.6-0.6-0.6-1.5,0-2.1l8.3-8.5c0.6-0.6,0.5-1.5,0-2c-0.6-0.5-1.4-0.5-2,0c0,0,0,0-0.1,0L28.5,20L23,19.1c-0.7-0.1-1.4,0.3-1.6,1  l-1.7,5.6l-2.4,0.4l2.4-9.4c0.1-0.4,0.4-0.8,0.8-0.9l4.1-1.5c4.5-1.6,8.8-3.7,12.8-6.2l0.5-0.3c1.9,1.6,3.5,3.7,4.8,6.1L39,15.8  c-0.2,0.4-1.7,3.8-4.1,6.2l-9.4,9.5C24.9,32.1,24,32.1,23.4,31.5z M22.8,25.3l0.9-2.9l2.3,0.4l-2.4,2.4L22.8,25.3z"/>
<path class="st1" d="M17.8,43.6l-2.5-14.1l5.2-0.9c-0.8,1.7-0.5,3.7,0.9,5.1c1.7,1.7,4.5,1.6,6.2-0.1l0,0l0,0l0,0l0,0l4.2-4.2  l2.5,14.3L17.8,43.6L17.8,43.6z"/>
<g>
	<polygon class="st0" points="69.5,21.4 61.7,21.4 61.7,18.2 69.1,18.2 69.1,15.3 61.7,15.3 61.7,12.4 69.5,12.4 69.5,9.5 58.5,9.5    58.5,24.4 69.5,24.4  "/>
	<polygon class="st0" points="82.4,21.4 75.6,21.4 75.6,9.5 72.5,9.5 72.5,24.4 82.4,24.4  "/>
	<polygon class="st0" points="96,21.4 88.2,21.4 88.2,18.2 95.6,18.2 95.6,15.3 88.2,15.3 88.2,12.4 96,12.4 96,9.5 85,9.5 85,24.4    96,24.4  "/>
	<path class="st0" d="M106.5,24.6c2.8,0,4.7-1.2,6.1-2.8l-2.1-2.2c-1,1.4-2.4,2.1-4,2.1c-2.5,0-4.6-1.7-4.6-4.8s2.3-4.7,4.4-4.7   c1.7,0,3.1,0.8,4,2l2.1-2.2c-1.4-1.7-3.4-2.8-5.9-2.8c-4.4,0-7.8,3-7.8,7.7C98.6,21.6,102,24.6,106.5,24.6z"/>
	<polygon class="st0" points="118.1,24.4 121.2,24.4 121.2,12.4 125.5,12.4 125.5,9.5 113.8,9.5 113.8,12.4 118.1,12.4  "/>
	<path class="st0" d="M141.3,16.9c0-4.5-3.4-7.7-7.7-7.7s-7.7,3.2-7.7,7.7s3.4,7.7,7.7,7.7S141.3,21.4,141.3,16.9z M133.7,21.6   c-2.8,0-4.5-2.1-4.5-4.7c0-2.5,1.7-4.7,4.5-4.7c2.6,0,4.4,2.2,4.4,4.7C138.1,19.5,136.4,21.6,133.7,21.6z"/>
	<path class="st0" d="M156.1,24.4l-3.3-5.4c1.8-0.8,2.9-2.5,2.9-4.7c0-3.1-2.5-4.9-5.7-4.9h-6.2v14.9h3.2v-4.8h2.5l2.9,4.8h3.7V24.4   z M149.5,16.7h-2.4v-4.3h2.4c2.1,0,3.1,0.7,3.1,2.1C152.6,15.9,151.6,16.7,149.5,16.7z"/>
	<path class="st0" d="M165.8,9.5h-3L157,24.4h3.3l1.2-2.9h5.8l1.2,2.9h3.3L165.8,9.5z M162.5,18.6l1.9-4.9l1.9,4.9H162.5z"/>
	<polygon class="st0" points="183.3,21.4 176.5,21.4 176.5,9.5 173.4,9.5 173.4,24.4 183.3,24.4  "/>
	<path class="st0" d="M65.5,40.9c-2.5,0-4.6-1.7-4.6-4.8s2.3-4.7,4.4-4.7c1.7,0,3.1,0.8,4,2l2.1-2.2c-1.4-1.7-3.4-2.8-5.9-2.8   c-4.4,0-7.8,3-7.8,7.7s3.4,7.7,7.9,7.7c2.8,0,4.7-1.2,6.1-2.8l-2.1-2.2C68.5,40.2,67.1,40.9,65.5,40.9z"/>
	<path class="st0" d="M80.7,28.5c-4.3,0-7.7,3.2-7.7,7.7s3.4,7.7,7.7,7.7c4.3,0,7.7-3.2,7.7-7.7S84.9,28.5,80.7,28.5z M80.7,40.9   c-2.8,0-4.5-2.1-4.5-4.7c0-2.5,1.7-4.7,4.5-4.7c2.6,0,4.4,2.2,4.4,4.7C85.2,38.7,83.5,40.9,80.7,40.9z"/>
	<rect x="130.1" y="28.7" class="st0" width="3.2" height="14.9"/>
	<path class="st0" d="M142.9,34.6l-1.5-0.2c-1.6-0.3-2.1-0.9-2.1-1.6c0-0.9,0.9-1.5,2.2-1.5c1.6,0,2.8,0.7,3.8,1.7l2.1-2.2   c-1.2-1.3-3.1-2.4-5.7-2.4c-2.8,0-5.5,1.6-5.5,4.5c0,2.6,1.9,4,4.7,4.5l1.8,0.3c1.5,0.3,2.1,0.8,2.1,1.6c0,0.9-0.9,1.6-2.6,1.6   c-1.9,0-3.3-1-4.2-2.1l-2.2,2.2c1.2,1.6,3.4,2.9,6.2,2.9c3.6,0,5.9-1.8,5.9-4.6C147.9,36.6,146.1,35.2,142.9,34.6z"/>
	<path class="st0" d="M156.7,34.6l-1.5-0.2c-1.6-0.3-2.1-0.9-2.1-1.6c0-0.9,0.9-1.5,2.2-1.5c1.6,0,2.8,0.7,3.8,1.7l2.1-2.2   c-1.2-1.3-3.1-2.4-5.7-2.4c-2.8,0-5.5,1.6-5.5,4.5c0,2.6,1.9,4,4.7,4.5l1.8,0.3c1.5,0.3,2.1,0.8,2.1,1.6c0,0.9-0.9,1.6-2.6,1.6   c-1.9,0-3.3-1-4.2-2.1l-2.2,2.2c1.2,1.6,3.4,2.9,6.2,2.9c3.6,0,5.9-1.8,5.9-4.6C161.7,36.6,160,35.2,156.7,34.6z"/>
	<rect x="164.3" y="28.7" class="st0" width="3.2" height="14.9"/>
	<path class="st0" d="M177.6,28.5c-4.3,0-7.7,3.2-7.7,7.7s3.4,7.7,7.7,7.7s7.7-3.2,7.7-7.7C185.4,31.7,181.9,28.5,177.6,28.5z    M177.7,40.9c-2.8,0-4.5-2.1-4.5-4.7c0-2.5,1.7-4.7,4.5-4.7c2.6,0,4.4,2.2,4.4,4.7S180.5,40.9,177.7,40.9z"/>
	<polygon class="st0" points="197.8,28.7 197.8,38.8 191.7,28.7 187.9,28.7 187.9,43.6 191.1,43.6 191.1,33.6 197.1,43.6    200.9,43.6 200.9,28.7  "/>
	<polygon class="st0" points="99.1,39.5 95.6,28.7 91,28.7 91,43.6 94.1,43.6 94.1,33.4 97.5,43.6 99.1,43.6 100.8,43.6 104.1,33.4    104.1,43.6 107.3,43.6 107.3,28.7 102.6,28.7  "/>
	<polygon class="st0" points="118.5,39.5 115,28.7 110.4,28.7 110.4,43.6 113.6,43.6 113.6,33.4 116.9,43.6 118.5,43.6 120.2,43.6    123.5,33.4 123.5,43.6 126.7,43.6 126.7,28.7 122,28.7  "/>
</g>
</svg>