<?xml version="1.0" encoding="utf-8"?>
<!-- Generator: Adobe Illustrator 27.0.0, SVG Export Plug-In . SVG Version: 6.00 Build 0)  -->
<svg version="1.1" id="Layer_1" xmlns="http://www.w3.org/2000/svg" xmlns:xlink="http://www.w3.org/1999/xlink" x="0px" y="0px"
	 viewBox="0 0 1000 1000" style="enable-background:new 0 0 1000 1000;" xml:space="preserve">
<style type="text/css">
	.st0{fill:#3D3D3D;}
</style>
<path class="st0" d="M803.3,759.1L634.9,590.7c32.9-42.3,52.6-95.5,52.6-153.2c0-137.8-112.2-250-250-250s-250,112.2-250,250
	s112.2,250,250,250c57.6,0,110.8-19.7,153.2-52.6l168.4,168.4c6.1,6.1,14.1,9.2,22.1,9.2s16-3.1,22.1-9.2
	C815.5,791.1,815.5,771.3,803.3,759.1z M437.5,625C334.1,625,250,540.9,250,437.5S334.1,250,437.5,250S625,334.1,625,437.5
	S540.9,625,437.5,625z"/>
</svg>
